<svg xmlns="http://www.w3.org/2000/svg" viewBox="0 0 116 42">
  <defs>
    <linearGradient id="wood" x1="0" y1="0" x2="0" y2="1">
      <stop offset="0" stop-color="#6a4024"/>
      <stop offset="1" stop-color="#2c1a11"/>
    </linearGradient>
    <linearGradient id="gold" x1="0" y1="0" x2="1" y2="1">
      <stop offset="0" stop-color="#fff0a4"/>
      <stop offset="0.38" stop-color="#dfad4d"/>
      <stop offset="1" stop-color="#7a4a1d"/>
    </linearGradient>
    <filter id="shadow" x="-20%" y="-55%" width="150%" height="210%">
      <feDropShadow dx="0" dy="4" stdDeviation="3" flood-color="#000" flood-opacity=".5"/>
    </filter>
  </defs>
  <g filter="url(#shadow)">
    <path d="M19 4h88l6 17-6 17H19L5 31V11Z" fill="url(#wood)" stroke="#1d110b" stroke-width="5"/>
    <path d="M20 7h84l5 14-5 14H20L9 29V13Z" fill="none" stroke="url(#gold)" stroke-width="3"/>
    <circle cx="21" cy="21" r="15" fill="#6d4517" stroke="#2a180b" stroke-width="4"/>
    <circle cx="21" cy="21" r="12" fill="url(#gold)" stroke="#fff0a4" stroke-opacity=".38" stroke-width="1.5"/>
    <path d="m21 12 2.7 5.6 6.1.9-4.4 4.3 1 6.1-5.4-2.9-5.4 2.9 1-6.1-4.4-4.3 6.1-.9Z" fill="#7c4b1a" opacity=".82"/>
  </g>
</svg>
