<svg xmlns="http://www.w3.org/2000/svg" viewBox="0 0 72 96">
  <defs>
    <linearGradient id="rim" x1="0" y1="0" x2="1" y2="1"><stop offset="0" stop-color="#eef8ff"/><stop offset=".42" stop-color="#9fc2d7"/><stop offset="1" stop-color="#4f667d"/></linearGradient>
    <radialGradient id="body" cx="40%" cy="25%" r="82%"><stop offset="0" stop-color="#78add1"/><stop offset=".5" stop-color="#465d9d"/><stop offset="1" stop-color="#232748"/></radialGradient>
    <filter id="shadow" x="-25%" y="-20%" width="150%" height="150%"><feDropShadow dx="0" dy="5" stdDeviation="3" flood-color="#000" flood-opacity=".55"/></filter>
  </defs>
  <g filter="url(#shadow)">
    <path d="M15 7h42l8 10v53c0 9-12 18-29 21C19 88 7 79 7 70V17Z" fill="#101522" stroke="#0d1119" stroke-width="6"/>
    <path d="M16 10h40l5 8v50c0 7-10 14-25 18-15-4-25-11-25-18V18Z" fill="url(#body)" stroke="url(#rim)" stroke-width="4"/>
    <path d="M18 18h36" stroke="#e4f7ff" stroke-width="2" stroke-linecap="round" opacity=".48"/>
    <path d="M15 68c5 8 12 12 21 15 9-3 16-7 21-15" fill="none" stroke="#293c62" stroke-width="3"/>
    <circle cx="13" cy="31" r="3" fill="#d9f1ff" stroke="#526b82" stroke-width="1.5"/><circle cx="59" cy="31" r="3" fill="#d9f1ff" stroke="#526b82" stroke-width="1.5"/>
  </g>
</svg>
